ISO-10303-21;
HEADER;
/* Generated by software containing ST-Developer
 * from STEP Tools, Inc. (www.steptools.com) 
 */

FILE_DESCRIPTION(
/* description */ (''),
/* implementation_level */ '2;1');

FILE_NAME(
/* name */ 'blade_simple_simulation.step',
/* time_stamp */ '2026-05-22T17:51:53+08:00',
/* author */ (''),
/* organization */ (''),
/* preprocessor_version */ 'ST-DEVELOPER v20.1',
/* originating_system */ 'Autodesk Translation Framework v15.8.0.0',
/* authorisation */ '');

FILE_SCHEMA (('AUTOMOTIVE_DESIGN { 1 0 10303 214 3 1 1 }'));
ENDSEC;

DATA;
#10=MECHANICAL_DESIGN_GEOMETRIC_PRESENTATION_REPRESENTATION('',(#13),#777);
#11=SHAPE_REPRESENTATION_RELATIONSHIP('SRR','None',#784,#12);
#12=ADVANCED_BREP_SHAPE_REPRESENTATION('',(#14),#776);
#13=STYLED_ITEM('',(#793),#14);
#14=MANIFOLD_SOLID_BREP('Body2',#59);
#15=B_SPLINE_CURVE_WITH_KNOTS('',3,(#521,#522,#523,#524,#525,#526,#527,
#528,#529,#530,#531,#532,#533,#534,#535),.UNSPECIFIED.,.F.,.F.,(4,1,1,1,
1,1,1,1,1,1,1,1,4),(0.,9.99765060926389,19.996838729944,29.9977555065619,
40.0002193356965,50.001397945307,60.0012893722563,70.0004020695644,80.0002820062189,
89.9881143308492,99.9848355166073,109.989271196896,120.000446726082),
 .UNSPECIFIED.);
#16=B_SPLINE_SURFACE_WITH_KNOTS('',3,3,((#178,#179,#180,#181,#182,#183,
#184,#185,#186,#187,#188,#189,#190,#191,#192,#193,#194),(#195,#196,#197,
#198,#199,#200,#201,#202,#203,#204,#205,#206,#207,#208,#209,#210,#211),
(#212,#213,#214,#215,#216,#217,#218,#219,#220,#221,#222,#223,#224,#225,
#226,#227,#228),(#229,#230,#231,#232,#233,#234,#235,#236,#237,#238,#239,
#240,#241,#242,#243,#244,#245),(#246,#247,#248,#249,#250,#251,#252,#253,
#254,#255,#256,#257,#258,#259,#260,#261,#262),(#263,#264,#265,#266,#267,
#268,#269,#270,#271,#272,#273,#274,#275,#276,#277,#278,#279),(#280,#281,
#282,#283,#284,#285,#286,#287,#288,#289,#290,#291,#292,#293,#294,#295,#296),
(#297,#298,#299,#300,#301,#302,#303,#304,#305,#306,#307,#308,#309,#310,
#311,#312,#313),(#314,#315,#316,#317,#318,#319,#320,#321,#322,#323,#324,
#325,#326,#327,#328,#329,#330),(#331,#332,#333,#334,#335,#336,#337,#338,
#339,#340,#341,#342,#343,#344,#345,#346,#347),(#348,#349,#350,#351,#352,
#353,#354,#355,#356,#357,#358,#359,#360,#361,#362,#363,#364),(#365,#366,
#367,#368,#369,#370,#371,#372,#373,#374,#375,#376,#377,#378,#379,#380,#381),
(#382,#383,#384,#385,#386,#387,#388,#389,#390,#391,#392,#393,#394,#395,
#396,#397,#398),(#399,#400,#401,#402,#403,#404,#405,#406,#407,#408,#409,
#410,#411,#412,#413,#414,#415),(#416,#417,#418,#419,#420,#421,#422,#423,
#424,#425,#426,#427,#428,#429,#430,#431,#432),(#433,#434,#435,#436,#437,
#438,#439,#440,#441,#442,#443,#444,#445,#446,#447,#448,#449),(#450,#451,
#452,#453,#454,#455,#456,#457,#458,#459,#460,#461,#462,#463,#464,#465,#466),
(#467,#468,#469,#470,#471,#472,#473,#474,#475,#476,#477,#478,#479,#480,
#481,#482,#483),(#484,#485,#486,#487,#488,#489,#490,#491,#492,#493,#494,
#495,#496,#497,#498,#499,#500)),.UNSPECIFIED.,.F.,.F.,.F.,(4,1,1,1,1,1,
2,1,1,1,1,1,1,1,1,4),(4,1,1,1,2,1,1,1,2,1,1,1,4),(0.,0.13620168757086,0.272403375141721,
0.408605062712581,0.544806750283442,0.612907594068872,0.681008437854302,
0.712907594068872,0.744806750283442,0.808605062712581,0.840504218927151,
0.872403375141721,0.904302531356291,0.936201687570861,0.96810084378543,
1.),(0.,0.0833698984246877,0.166752618078643,0.25014975290628,0.333559788525935,
0.416955843910675,0.500336506399147,0.58370881265226,0.667088448040123,
0.750301458955314,0.833492107039862,0.916708393586649,1.),.UNSPECIFIED.);
#17=B_SPLINE_SURFACE_WITH_KNOTS('',3,3,((#536,#537,#538,#539,#540,#541,
#542,#543,#544,#545,#546,#547,#548,#549,#550,#551,#552),(#553,#554,#555,
#556,#557,#558,#559,#560,#561,#562,#563,#564,#565,#566,#567,#568,#569),
(#570,#571,#572,#573,#574,#575,#576,#577,#578,#579,#580,#581,#582,#583,
#584,#585,#586),(#587,#588,#589,#590,#591,#592,#593,#594,#595,#596,#597,
#598,#599,#600,#601,#602,#603),(#604,#605,#606,#607,#608,#609,#610,#611,
#612,#613,#614,#615,#616,#617,#618,#619,#620),(#621,#622,#623,#624,#625,
#626,#627,#628,#629,#630,#631,#632,#633,#634,#635,#636,#637),(#638,#639,
#640,#641,#642,#643,#644,#645,#646,#647,#648,#649,#650,#651,#652,#653,#654),
(#655,#656,#657,#658,#659,#660,#661,#662,#663,#664,#665,#666,#667,#668,
#669,#670,#671),(#672,#673,#674,#675,#676,#677,#678,#679,#680,#681,#682,
#683,#684,#685,#686,#687,#688),(#689,#690,#691,#692,#693,#694,#695,#696,
#697,#698,#699,#700,#701,#702,#703,#704,#705),(#706,#707,#708,#709,#710,
#711,#712,#713,#714,#715,#716,#717,#718,#719,#720,#721,#722),(#723,#724,
#725,#726,#727,#728,#729,#730,#731,#732,#733,#734,#735,#736,#737,#738,#739),
(#740,#741,#742,#743,#744,#745,#746,#747,#748,#749,#750,#751,#752,#753,
#754,#755,#756),(#757,#758,#759,#760,#761,#762,#763,#764,#765,#766,#767,
#768,#769,#770,#771,#772,#773)),.UNSPECIFIED.,.F.,.F.,.F.,(4,1,1,1,1,1,
1,1,1,1,1,4),(4,1,1,1,2,1,1,1,2,1,1,1,4),(0.,0.0714285714285714,0.142857142857143,
0.19047619047619,0.285714285714286,0.30952380952381,0.333333333333333,0.428571428571429,
0.571428571428571,0.714285714285714,0.857142857142857,1.),(0.,0.0833698984246877,
0.166752618078643,0.25014975290628,0.333559788525935,0.416955843910675,
0.500336506399147,0.58370881265226,0.667088448040123,0.750301458955314,
0.833492107039862,0.916708393586649,1.),.UNSPECIFIED.);
#18=FACE_OUTER_BOUND('',#22,.T.);
#19=FACE_OUTER_BOUND('',#23,.T.);
#20=FACE_OUTER_BOUND('',#24,.T.);
#21=FACE_OUTER_BOUND('',#25,.T.);
#22=EDGE_LOOP('',(#41,#42));
#23=EDGE_LOOP('',(#43,#44));
#24=EDGE_LOOP('',(#45,#46,#47,#48));
#25=EDGE_LOOP('',(#49,#50,#51,#52));
#26=(
BOUNDED_CURVE()
B_SPLINE_CURVE(5,(#85,#86,#87,#88,#89,#90,#91,#92,#93,#94,#95,#96,#97,#98,
#99,#100,#101,#102,#103,#104,#105,#106,#107,#108,#109),.UNSPECIFIED.,.F.,
 .F.)
B_SPLINE_CURVE_WITH_KNOTS((6,1,1,1,1,1,1,1,1,1,1,1,1,1,1,1,1,1,1,1,6),(-1.,
-0.95,-0.9,-0.85,-0.8,-0.75,-0.7,-0.65,-0.6,-0.55,-0.5,-0.45,-0.4,-0.35,
-0.3,-0.25,-0.2,-0.15,-0.1,-0.05,0.),.UNSPECIFIED.)
CURVE()
GEOMETRIC_REPRESENTATION_ITEM()
RATIONAL_B_SPLINE_CURVE((1.,1.,1.,1.,1.,1.,1.,1.,1.,1.,1.,1.,1.,1.,1.,1.,
1.,1.,1.,1.,1.,1.,1.,1.,1.))
REPRESENTATION_ITEM('')
);
#27=(
BOUNDED_CURVE()
B_SPLINE_CURVE(5,(#110,#111,#112,#113,#114,#115,#116,#117,#118,#119,#120,
#121,#122,#123,#124,#125,#126,#127,#128,#129),.UNSPECIFIED.,.F.,.F.)
B_SPLINE_CURVE_WITH_KNOTS((6,1,1,1,1,1,1,1,1,1,1,1,1,1,1,6),(0.,0.0666666666666667,
0.133333333333333,0.2,0.266666666666667,0.333333333333333,0.4,0.466666666666667,
0.533333333333333,0.6,0.666666666666667,0.733333333333333,0.8,0.866666666666667,
0.933333333333333,1.),.UNSPECIFIED.)
CURVE()
GEOMETRIC_REPRESENTATION_ITEM()
RATIONAL_B_SPLINE_CURVE((1.,1.,1.,1.,1.,1.,1.,1.,1.,1.,1.,1.,1.,1.,1.,1.,
1.,1.,1.,1.))
REPRESENTATION_ITEM('')
);
#28=(
BOUNDED_CURVE()
B_SPLINE_CURVE(5,(#133,#134,#135,#136,#137,#138,#139,#140,#141,#142,#143,
#144,#145,#146,#147,#148,#149,#150,#151,#152,#153,#154,#155,#156,#157),
 .UNSPECIFIED.,.F.,.F.)
B_SPLINE_CURVE_WITH_KNOTS((6,1,1,1,1,1,1,1,1,1,1,1,1,1,1,1,1,1,1,1,6),(-1.,
-0.95,-0.9,-0.85,-0.8,-0.75,-0.7,-0.65,-0.6,-0.55,-0.5,-0.45,-0.4,-0.35,
-0.3,-0.25,-0.2,-0.15,-0.1,-0.05,0.),.UNSPECIFIED.)
CURVE()
GEOMETRIC_REPRESENTATION_ITEM()
RATIONAL_B_SPLINE_CURVE((1.,1.,1.,1.,1.,1.,1.,1.,1.,1.,1.,1.,1.,1.,1.,1.,
1.,1.,1.,1.,1.,1.,1.,1.,1.))
REPRESENTATION_ITEM('')
);
#29=(
BOUNDED_CURVE()
B_SPLINE_CURVE(5,(#158,#159,#160,#161,#162,#163,#164,#165,#166,#167,#168,
#169,#170,#171,#172,#173,#174,#175,#176,#177),.UNSPECIFIED.,.F.,.F.)
B_SPLINE_CURVE_WITH_KNOTS((6,1,1,1,1,1,1,1,1,1,1,1,1,1,1,6),(0.,0.0666666666666667,
0.133333333333333,0.2,0.266666666666667,0.333333333333333,0.4,0.466666666666667,
0.533333333333333,0.6,0.666666666666667,0.733333333333333,0.8,0.866666666666667,
0.933333333333333,1.),.UNSPECIFIED.)
CURVE()
GEOMETRIC_REPRESENTATION_ITEM()
RATIONAL_B_SPLINE_CURVE((1.,1.,1.,1.,1.,1.,1.,1.,1.,1.,1.,1.,1.,1.,1.,1.,
1.,1.,1.,1.))
REPRESENTATION_ITEM('')
);
#30=(
BOUNDED_CURVE()
B_SPLINE_CURVE(5,(#501,#502,#503,#504,#505,#506,#507,#508,#509,#510,#511,
#512,#513,#514,#515,#516,#517,#518,#519,#520),.UNSPECIFIED.,.F.,.F.)
B_SPLINE_CURVE_WITH_KNOTS((6,1,1,1,1,1,1,1,1,1,1,1,1,1,1,6),(0.,0.0666666666666667,
0.133333333333333,0.2,0.266666666666667,0.333333333333333,0.4,0.466666666666667,
0.533333333333333,0.6,0.666666666666667,0.733333333333333,0.8,0.866666666666667,
0.933333333333333,1.),.UNSPECIFIED.)
CURVE()
GEOMETRIC_REPRESENTATION_ITEM()
RATIONAL_B_SPLINE_CURVE((1.,1.,1.,1.,1.,1.,1.,1.,1.,1.,1.,1.,1.,1.,1.,1.,
1.,1.,1.,1.))
REPRESENTATION_ITEM('')
);
#31=VERTEX_POINT('',#83);
#32=VERTEX_POINT('',#84);
#33=VERTEX_POINT('',#131);
#34=VERTEX_POINT('',#132);
#35=EDGE_CURVE('',#31,#32,#26,.T.);
#36=EDGE_CURVE('',#32,#31,#27,.T.);
#37=EDGE_CURVE('',#33,#34,#28,.T.);
#38=EDGE_CURVE('',#34,#33,#29,.T.);
#39=EDGE_CURVE('',#33,#31,#30,.T.);
#40=EDGE_CURVE('',#34,#32,#15,.T.);
#41=ORIENTED_EDGE('',*,*,#35,.F.);
#42=ORIENTED_EDGE('',*,*,#36,.F.);
#43=ORIENTED_EDGE('',*,*,#37,.T.);
#44=ORIENTED_EDGE('',*,*,#38,.T.);
#45=ORIENTED_EDGE('',*,*,#37,.F.);
#46=ORIENTED_EDGE('',*,*,#39,.T.);
#47=ORIENTED_EDGE('',*,*,#35,.T.);
#48=ORIENTED_EDGE('',*,*,#40,.F.);
#49=ORIENTED_EDGE('',*,*,#38,.F.);
#50=ORIENTED_EDGE('',*,*,#40,.T.);
#51=ORIENTED_EDGE('',*,*,#36,.T.);
#52=ORIENTED_EDGE('',*,*,#39,.F.);
#53=PLANE('',#73);
#54=PLANE('',#74);
#55=ADVANCED_FACE('',(#18),#53,.T.);
#56=ADVANCED_FACE('',(#19),#54,.F.);
#57=ADVANCED_FACE('',(#20),#16,.F.);
#58=ADVANCED_FACE('',(#21),#17,.F.);
#59=CLOSED_SHELL('',(#55,#56,#57,#58));
#60=DERIVED_UNIT_ELEMENT(#62,1.);
#61=DERIVED_UNIT_ELEMENT(#779,-3.);
#62=(
MASS_UNIT()
NAMED_UNIT(*)
SI_UNIT(.KILO.,.GRAM.)
);
#63=DERIVED_UNIT((#60,#61));
#64=MEASURE_REPRESENTATION_ITEM('density measure',
POSITIVE_RATIO_MEASURE(7850.),#63);
#65=PROPERTY_DEFINITION_REPRESENTATION(#70,#67);
#66=PROPERTY_DEFINITION_REPRESENTATION(#71,#68);
#67=REPRESENTATION('material name',(#69),#776);
#68=REPRESENTATION('density',(#64),#776);
#69=DESCRIPTIVE_REPRESENTATION_ITEM('Steel','Steel');
#70=PROPERTY_DEFINITION('material property','material name',#786);
#71=PROPERTY_DEFINITION('material property','density of part',#786);
#72=AXIS2_PLACEMENT_3D('',#81,#75,#76);
#73=AXIS2_PLACEMENT_3D('',#82,#77,#78);
#74=AXIS2_PLACEMENT_3D('',#130,#79,#80);
#75=DIRECTION('axis',(0.,0.,1.));
#76=DIRECTION('refdir',(1.,0.,0.));
#77=DIRECTION('center_axis',(-4.39046561550086E-16,1.,2.03984301178577E-15));
#78=DIRECTION('ref_axis',(0.,-2.03984301178577E-15,1.));
#79=DIRECTION('center_axis',(0.,1.,0.));
#80=DIRECTION('ref_axis',(0.,0.,1.));
#81=CARTESIAN_POINT('',(0.,0.,0.));
#82=CARTESIAN_POINT('Origin',(17.0718352480513,1200.,2.14722587124602));
#83=CARTESIAN_POINT('',(39.8477879236698,1200.,3.48622970990633));
#84=CARTESIAN_POINT('',(0.,1200.,0.));
#85=CARTESIAN_POINT('Ctrl Pts',(39.8477879236698,1200.,3.48622970990633));
#86=CARTESIAN_POINT('Ctrl Pts',(39.2705125386887,1200.,3.50329186193256));
#87=CARTESIAN_POINT('Ctrl Pts',(38.1232081587487,1200.,3.54613470033861));
#88=CARTESIAN_POINT('Ctrl Pts',(36.4239906886068,1200.,3.63655489635449));
#89=CARTESIAN_POINT('Ctrl Pts',(34.2020235910163,1200.,3.80963764724303));
#90=CARTESIAN_POINT('Ctrl Pts',(31.4986341788538,1200.,4.11275331933651));
#91=CARTESIAN_POINT('Ctrl Pts',(28.8714232048834,1200.,4.49802134017411));
#92=CARTESIAN_POINT('Ctrl Pts',(26.3231733089193,1200.,4.95452924159114));
#93=CARTESIAN_POINT('Ctrl Pts',(23.857192400921,1200.,5.4620557536359));
#94=CARTESIAN_POINT('Ctrl Pts',(21.4770426870997,1200.,5.98881782286756));
#95=CARTESIAN_POINT('Ctrl Pts',(19.1863717549139,1200.,6.48677469443713));
#96=CARTESIAN_POINT('Ctrl Pts',(16.9880780316659,1200.,6.89557883313118));
#97=CARTESIAN_POINT('Ctrl Pts',(14.8831094089428,1200.,7.15329337081378));
#98=CARTESIAN_POINT('Ctrl Pts',(12.8689563379515,1200.,7.2055076009827));
#99=CARTESIAN_POINT('Ctrl Pts',(10.9387552364416,1200.,7.01463515567992));
#100=CARTESIAN_POINT('Ctrl Pts',(9.07844037193982,1200.,6.57126910162463));
#101=CARTESIAN_POINT('Ctrl Pts',(7.26916303236197,1200.,5.90008083619716));
#102=CARTESIAN_POINT('Ctrl Pts',(5.50445323990401,1200.,5.0470570531774));
#103=CARTESIAN_POINT('Ctrl Pts',(3.8070964464145,1200.,4.07025015199886));
#104=CARTESIAN_POINT('Ctrl Pts',(2.24200263076686,1200.,3.03007839105814));
#105=CARTESIAN_POINT('Ctrl Pts',(0.942270406176728,1200.,1.97891193776604));
#106=CARTESIAN_POINT('Ctrl Pts',(0.258402620977494,1200.,1.16021195694736));
#107=CARTESIAN_POINT('Ctrl Pts',(0.0155759426752233,1200.,0.56986975489365));
#108=CARTESIAN_POINT('Ctrl Pts',(-0.0164484381182906,1200.,0.18800650799081));
#109=CARTESIAN_POINT('Ctrl Pts',(0.,1200.,0.));
#110=CARTESIAN_POINT('Ctrl Pts',(0.,1200.,0.));
#111=CARTESIAN_POINT('Ctrl Pts',(0.0219507819472664,1200.,-0.250898585743822));
#112=CARTESIAN_POINT('Ctrl Pts',(0.160837608896278,1200.,-0.707116951047562));
#113=CARTESIAN_POINT('Ctrl Pts',(0.654156703030919,1200.,-1.25469307126266));
#114=CARTESIAN_POINT('Ctrl Pts',(1.83760443814974,1200.,-1.7309364261077));
#115=CARTESIAN_POINT('Ctrl Pts',(3.96296103789724,1200.,-2.00448967543096));
#116=CARTESIAN_POINT('Ctrl Pts',(6.47234848252261,1200.,-2.07053287738326));
#117=CARTESIAN_POINT('Ctrl Pts',(9.17717189065777,1200.,-2.00878277053281));
#118=CARTESIAN_POINT('Ctrl Pts',(11.9736615098348,1200.,-1.85971797501474));
#119=CARTESIAN_POINT('Ctrl Pts',(14.8139028633348,1200.,-1.63825347156398));
#120=CARTESIAN_POINT('Ctrl Pts',(17.6907945617107,1200.,-1.34124781562901));
#121=CARTESIAN_POINT('Ctrl Pts',(20.6190969797443,1200.,-0.95681658215713));
#122=CARTESIAN_POINT('Ctrl Pts',(23.6171310057391,1200.,-0.473780979814107));
#123=CARTESIAN_POINT('Ctrl Pts',(26.6938380700058,1200.,0.111901068420375));
#124=CARTESIAN_POINT('Ctrl Pts',(29.8534678254544,1200.,0.80063797422989));
#125=CARTESIAN_POINT('Ctrl Pts',(33.0965377096004,1200.,1.59041882394939));
#126=CARTESIAN_POINT('Ctrl Pts',(35.756808541606,1200.,2.30088407269637));
#127=CARTESIAN_POINT('Ctrl Pts',(37.7882905639182,1200.,2.87689315209829));
#128=CARTESIAN_POINT('Ctrl Pts',(39.1586207167826,1200.,3.27994349275858));
#129=CARTESIAN_POINT('Ctrl Pts',(39.8477879236698,1200.,3.48622970990633));
#130=CARTESIAN_POINT('Origin',(82.7701761307574,0.,25.5055863073272));
#131=CARTESIAN_POINT('',(193.185165257814,0.,51.7638090205041));
#132=CARTESIAN_POINT('',(0.,0.,0.));
#133=CARTESIAN_POINT('Ctrl Pts',(193.185165257814,0.,51.7638090205041));
#134=CARTESIAN_POINT('Ctrl Pts',(190.379499123613,0.,51.3345740424334));
#135=CARTESIAN_POINT('Ctrl Pts',(184.791800492947,0.,50.527047883897));
#136=CARTESIAN_POINT('Ctrl Pts',(176.481152714643,0.,49.4685916315808));
#137=CARTESIAN_POINT('Ctrl Pts',(165.54267423498,0.,48.3642163424969));
#138=CARTESIAN_POINT('Ctrl Pts',(152.113848483961,0.,47.4927002721137));
#139=CARTESIAN_POINT('Ctrl Pts',(138.944371357686,0.,47.1092344855658));
#140=CARTESIAN_POINT('Ctrl Pts',(126.059665162457,0.,47.1620903758392));
#141=CARTESIAN_POINT('Ctrl Pts',(113.498281524333,0.,47.553543401623));
#142=CARTESIAN_POINT('Ctrl Pts',(101.313170361979,0.,48.1283106290181));
#143=CARTESIAN_POINT('Ctrl Pts',(89.5764005173394,0.,48.6500421734976));
#144=CARTESIAN_POINT('Ctrl Pts',(78.371122655065,0.,48.816604853845));
#145=CARTESIAN_POINT('Ctrl Pts',(67.77109477739,0.,48.3155042391449));
#146=CARTESIAN_POINT('Ctrl Pts',(57.8214968523082,0.,46.8695860078527));
#147=CARTESIAN_POINT('Ctrl Pts',(48.5213417912924,0.,44.285368272044));
#148=CARTESIAN_POINT('Ctrl Pts',(39.7963414255532,0.,40.5079598782644));
#149=CARTESIAN_POINT('Ctrl Pts',(31.4956982022211,0.,35.659905388452));
#150=CARTESIAN_POINT('Ctrl Pts',(23.5049969258541,0.,29.9806715452904));
#151=CARTESIAN_POINT('Ctrl Pts',(15.8565586036189,0.,23.7806388924797));
#152=CARTESIAN_POINT('Ctrl Pts',(8.817477462061,0.,17.3932533265342));
#153=CARTESIAN_POINT('Ctrl Pts',(3.05008527783137,0.,11.1259096622119));
#154=CARTESIAN_POINT('Ctrl Pts',(0.234223885006414,0.,6.40419223454005));
#155=CARTESIAN_POINT('Ctrl Pts',(-0.476581139375588,0.,3.10184640012208));
#156=CARTESIAN_POINT('Ctrl Pts',(-0.271928891274395,0.,1.01485243828191));
#157=CARTESIAN_POINT('Ctrl Pts',(0.,0.,0.));
#158=CARTESIAN_POINT('Ctrl Pts',(0.,0.,0.));
#159=CARTESIAN_POINT('Ctrl Pts',(0.365134540523678,0.,-1.36270065683268));
#160=CARTESIAN_POINT('Ctrl Pts',(1.5396801605708,0.,-3.71702503145777));
#161=CARTESIAN_POINT('Ctrl Pts',(4.63447172845914,0.,-6.13515572781261));
#162=CARTESIAN_POINT('Ctrl Pts',(11.1995788009438,0.,-7.32304432931446));
#163=CARTESIAN_POINT('Ctrl Pts',(22.3004647270525,0.,-6.38752140853414));
#164=CARTESIAN_POINT('Ctrl Pts',(34.991120420634,0.,-4.10473282404934));
#165=CARTESIAN_POINT('Ctrl Pts',(48.3805562259208,0.,-1.17903516592807));
#166=CARTESIAN_POINT('Ctrl Pts',(61.9959875811166,0.,2.0524247689405));
#167=CARTESIAN_POINT('Ctrl Pts',(75.6458698626145,0.,5.49609506710458));
#168=CARTESIAN_POINT('Ctrl Pts',(89.3364435864527,0.,9.22401746705156));
#169=CARTESIAN_POINT('Ctrl Pts',(103.176785613835,0.,13.3862065317936));
#170=CARTESIAN_POINT('Ctrl Pts',(117.28178701807,0.,18.1182648810263));
#171=CARTESIAN_POINT('Ctrl Pts',(131.713177117166,0.,23.4874818014916));
#172=CARTESIAN_POINT('Ctrl Pts',(146.504676209799,0.,29.5238339268386));
#173=CARTESIAN_POINT('Ctrl Pts',(161.667033826131,0.,36.2295590716881));
#174=CARTESIAN_POINT('Ctrl Pts',(174.092773403643,0.,42.1212275457296));
#175=CARTESIAN_POINT('Ctrl Pts',(183.57576624501,0.,46.8303905720356));
#176=CARTESIAN_POINT('Ctrl Pts',(189.969993806733,0.,50.0979787379222));
#177=CARTESIAN_POINT('Ctrl Pts',(193.185165257814,0.,51.7638090205041));
#178=CARTESIAN_POINT('Ctrl Pts',(193.185165257814,0.,51.7638090205041));
#179=CARTESIAN_POINT('Ctrl Pts',(188.95924328476,33.3410622189772,49.2949359633875));
#180=CARTESIAN_POINT('Ctrl Pts',(180.290968629463,100.021098394673,44.5414078606742));
#181=CARTESIAN_POINT('Ctrl Pts',(166.633653443205,200.02509470068,37.9734674576581));
#182=CARTESIAN_POINT('Ctrl Pts',(152.335477020353,300.019510583524,31.9885933789168));
#183=CARTESIAN_POINT('Ctrl Pts',(142.434761869791,366.672870394893,28.4031087241582));
#184=CARTESIAN_POINT('Ctrl Pts',(132.422309046336,433.321576947118,25.0235882773643));
#185=CARTESIAN_POINT('Ctrl Pts',(122.296444547926,499.977419645154,21.8494066689457));
#186=CARTESIAN_POINT('Ctrl Pts',(107.159593909542,599.986499241834,17.6903924927883));
#187=CARTESIAN_POINT('Ctrl Pts',(92.564043468815,700.000819528266,14.1036861122555));
#188=CARTESIAN_POINT('Ctrl Pts',(83.5145822185315,766.669937606601,12.0688835322501));
#189=CARTESIAN_POINT('Ctrl Pts',(74.9361696959117,833.263414871292,10.2006749272912));
#190=CARTESIAN_POINT('Ctrl Pts',(66.8229772501449,899.810965847457,8.49751121889496));
#191=CARTESIAN_POINT('Ctrl Pts',(56.1866790971504,999.735707660251,6.39309920566555));
#192=CARTESIAN_POINT('Ctrl Pts',(47.1172522744788,1099.79093342202,4.70735145816083));
#193=CARTESIAN_POINT('Ctrl Pts',(42.101824690469,1166.57623111731,3.84969859474232));
#194=CARTESIAN_POINT('Ctrl Pts',(39.8477879236698,1200.,3.48622970990633));
#195=CARTESIAN_POINT('Ctrl Pts',(182.119902512117,0.,50.0709497903562));
#196=CARTESIAN_POINT('Ctrl Pts',(178.147479558773,33.3401318162428,47.7182787533717));
#197=CARTESIAN_POINT('Ctrl Pts',(169.993856380362,100.0188088565,43.1901807458206));
#198=CARTESIAN_POINT('Ctrl Pts',(157.132004412,200.022189429072,36.9303997036133));
#199=CARTESIAN_POINT('Ctrl Pts',(143.653423138927,300.017330499574,31.2146713301069));
#200=CARTESIAN_POINT('Ctrl Pts',(134.315540629723,366.672012967221,27.7765547763552));
#201=CARTESIAN_POINT('Ctrl Pts',(124.874304324885,433.322434231078,24.5253465791576));
#202=CARTESIAN_POINT('Ctrl Pts',(115.329680860349,499.978908351596,21.4634595942161));
#203=CARTESIAN_POINT('Ctrl Pts',(101.063662748541,599.987158787911,17.4332302731196));
#204=CARTESIAN_POINT('Ctrl Pts',(87.3065834699426,700.000345746652,13.9439903151488));
#205=CARTESIAN_POINT('Ctrl Pts',(78.7736719742974,766.669486449848,11.9588426673688));
#206=CARTESIAN_POINT('Ctrl Pts',(70.6796909489383,833.263865126461,10.1353611915692));
#207=CARTESIAN_POINT('Ctrl Pts',(63.0201125229629,899.813780276916,8.46859026346278));
#208=CARTESIAN_POINT('Ctrl Pts',(52.9790920967177,999.742660650752,6.40190761486759));
#209=CARTESIAN_POINT('Ctrl Pts',(44.4255337081565,1099.79881939437,4.74501898708357));
#210=CARTESIAN_POINT('Ctrl Pts',(39.7047428268203,1166.58006373098,3.90601444946236));
#211=CARTESIAN_POINT('Ctrl Pts',(37.5866777298711,1200.,3.55305986909615));
#212=CARTESIAN_POINT('Ctrl Pts',(160.424654940588,0.,47.6402115261698));
#213=CARTESIAN_POINT('Ctrl Pts',(156.956919331145,33.338218114373,45.4734573828447));
#214=CARTESIAN_POINT('Ctrl Pts',(149.820812857539,100.013982593297,41.3267002048415));
#215=CARTESIAN_POINT('Ctrl Pts',(138.524195389796,200.015917133968,35.6140913519076));
#216=CARTESIAN_POINT('Ctrl Pts',(126.663508288722,300.01262188567,30.3667665410143));
#217=CARTESIAN_POINT('Ctrl Pts',(118.445539408275,366.670211032121,27.1529261825132));
#218=CARTESIAN_POINT('Ctrl Pts',(110.145637879471,433.32423283817,24.0649889778607));
#219=CARTESIAN_POINT('Ctrl Pts',(101.748470909201,499.981955852944,21.1656538433168));
#220=CARTESIAN_POINT('Ctrl Pts',(89.1811557633354,599.988428123385,17.3506033672176));
#221=CARTESIAN_POINT('Ctrl Pts',(77.0539241822133,699.999232585746,14.0234911349622));
#222=CARTESIAN_POINT('Ctrl Pts',(69.5312201699644,766.668444138938,12.0950504659317));
#223=CARTESIAN_POINT('Ctrl Pts',(62.3952710528306,833.264909279758,10.2941663188577));
#224=CARTESIAN_POINT('Ctrl Pts',(55.636869777804,899.819936785954,8.65887362495685));
#225=CARTESIAN_POINT('Ctrl Pts',(46.7741141022619,999.757341992871,6.6482936973801));
#226=CARTESIAN_POINT('Ctrl Pts',(39.2263045423486,1099.8151687898,5.03648445258553));
#227=CARTESIAN_POINT('Ctrl Pts',(35.0635487772369,1166.58795308269,4.20597079994649));
#228=CARTESIAN_POINT('Ctrl Pts',(33.1969329820846,1200.,3.84814868936684));
#229=CARTESIAN_POINT('Ctrl Pts',(129.270616782858,0.,46.822086609105));
#230=CARTESIAN_POINT('Ctrl Pts',(126.534446148388,33.3352870098822,44.8472469991639));
#231=CARTESIAN_POINT('Ctrl Pts',(120.880805405894,100.006385048069,41.088642318511));
#232=CARTESIAN_POINT('Ctrl Pts',(111.881093048626,200.005813402255,35.9077492989623));
#233=CARTESIAN_POINT('Ctrl Pts',(102.401467311429,300.00505007952,31.0769873670551));
#234=CARTESIAN_POINT('Ctrl Pts',(95.8251892765575,366.667404597104,28.0225421637349));
#235=CARTESIAN_POINT('Ctrl Pts',(89.1854114668365,433.327031471999,25.0165578463793));
#236=CARTESIAN_POINT('Ctrl Pts',(82.4444719121831,499.98659449232,22.2117831698266));
#237=CARTESIAN_POINT('Ctrl Pts',(72.3106212747171,599.990297412502,18.5235354939079));
#238=CARTESIAN_POINT('Ctrl Pts',(62.5095589974129,699.997407496968,15.2623386184661));
#239=CARTESIAN_POINT('Ctrl Pts',(56.4299130482086,766.666712875922,13.3075305990449));
#240=CARTESIAN_POINT('Ctrl Pts',(50.6708020338417,833.266646009963,11.4290509430054));
#241=CARTESIAN_POINT('Ctrl Pts',(45.219384054252,899.829885207092,9.74563815712435));
#242=CARTESIAN_POINT('Ctrl Pts',(38.0658914390312,999.780401491189,7.70798652039879));
#243=CARTESIAN_POINT('Ctrl Pts',(31.9539864038846,1099.8404264979,6.06434899487964));
#244=CARTESIAN_POINT('Ctrl Pts',(28.5576393655421,1166.60004841767,5.17308266853364));
#245=CARTESIAN_POINT('Ctrl Pts',(27.024325489205,1200.,4.76541699313421));
#246=CARTESIAN_POINT('Ctrl Pts',(99.8153157254144,0.,48.2312972180489));
#247=CARTESIAN_POINT('Ctrl Pts',(97.7665925038202,33.3323868277947,46.4140093507586));
#248=CARTESIAN_POINT('Ctrl Pts',(93.5302811380747,99.9988152524551,42.9083481192984));
#249=CARTESIAN_POINT('Ctrl Pts',(86.7634344582253,199.995700818348,37.9608450271114));
#250=CARTESIAN_POINT('Ctrl Pts',(79.5981231830508,299.997505522539,33.2564540380235));
#251=CARTESIAN_POINT('Ctrl Pts',(74.5913281453592,366.664648586605,30.2428703315873));
#252=CARTESIAN_POINT('Ctrl Pts',(69.5112517491225,433.329778043065,27.2729751999262));
#253=CARTESIAN_POINT('Ctrl Pts',(64.3334517233788,499.99115526259,24.4696655877442));
#254=CARTESIAN_POINT('Ctrl Pts',(56.5081159186788,599.992246594553,20.7014077555377));
#255=CARTESIAN_POINT('Ctrl Pts',(48.9126556541301,699.995771744872,17.3079327546917));
#256=CARTESIAN_POINT('Ctrl Pts',(44.1919878838335,766.665067591976,15.2510272231668));
#257=CARTESIAN_POINT('Ctrl Pts',(39.7218529179183,833.268299028922,13.2725428987941));
#258=CARTESIAN_POINT('Ctrl Pts',(35.5013590822113,899.839677823559,11.4871093236072));
#259=CARTESIAN_POINT('Ctrl Pts',(29.9642278187466,999.803217714903,9.29659843411934));
#260=CARTESIAN_POINT('Ctrl Pts',(25.2068513817067,1099.865413506,7.49872062068195));
#261=CARTESIAN_POINT('Ctrl Pts',(22.5252160544581,1166.6120112743,6.49908669160971));
#262=CARTESIAN_POINT('Ctrl Pts',(21.2986087299961,1200.,6.03412422692124));
#263=CARTESIAN_POINT('Ctrl Pts',(77.4044231581881,0.,49.0704850909079));
#264=CARTESIAN_POINT('Ctrl Pts',(75.8762993409729,33.330074075571,47.3996558161961));
#265=CARTESIAN_POINT('Ctrl Pts',(72.7173309681865,99.9928510242173,44.10950173925));
#266=CARTESIAN_POINT('Ctrl Pts',(67.651939491079,199.98783941478,39.3306242107929));
#267=CARTESIAN_POINT('Ctrl Pts',(62.2470620713967,299.991687976466,34.716843420058));
#268=CARTESIAN_POINT('Ctrl Pts',(58.4279651360412,366.662523392761,31.764137811617));
#269=CARTESIAN_POINT('Ctrl Pts',(54.5234896489224,433.331896576435,28.8836777284869));
#270=CARTESIAN_POINT('Ctrl Pts',(50.5310683016131,499.994770700491,26.1073662429729));
#271=CARTESIAN_POINT('Ctrl Pts',(44.4680540284722,599.994032981622,22.2606654089246));
#272=CARTESIAN_POINT('Ctrl Pts',(38.5598060263652,699.994852616405,18.7439567021251));
#273=CARTESIAN_POINT('Ctrl Pts',(34.8754837888755,766.663979166684,16.6251378180148));
#274=CARTESIAN_POINT('Ctrl Pts',(31.383212443032,833.269392978182,14.6188772315395));
#275=CARTESIAN_POINT('Ctrl Pts',(28.0910050181516,899.846984007452,12.7750207948046));
#276=CARTESIAN_POINT('Ctrl Pts',(23.7702087032432,999.820958698639,10.4511192682759));
#277=CARTESIAN_POINT('Ctrl Pts',(20.0424280585406,1099.88517527301,8.51458676834653));
#278=CARTESIAN_POINT('Ctrl Pts',(17.9208989432288,1166.62153622205,7.44355938860217));
#279=CARTESIAN_POINT('Ctrl Pts',(16.9422033457173,1200.,6.95388742348498));
#280=CARTESIAN_POINT('Ctrl Pts',(61.2549544385966,0.,47.4765403834939));
#281=CARTESIAN_POINT('Ctrl Pts',(60.102640683453,33.328333095389,45.9582612554507));
#282=CARTESIAN_POINT('Ctrl Pts',(57.7058000120138,99.9884785621822,42.944435192058));
#283=CARTESIAN_POINT('Ctrl Pts',(53.8190749856387,199.982233513844,38.5105779188103));
#284=CARTESIAN_POINT('Ctrl Pts',(49.6307192364514,299.987583807948,34.1887642650455));
#285=CARTESIAN_POINT('Ctrl Pts',(46.6458352475653,366.661003693654,31.406903310243));
#286=CARTESIAN_POINT('Ctrl Pts',(43.5830716994653,433.333413063429,28.6921550957236));
#287=CARTESIAN_POINT('Ctrl Pts',(40.4424703526096,499.997479676831,26.0420939235304));
#288=CARTESIAN_POINT('Ctrl Pts',(35.651035138066,599.99561662698,22.3034205695554));
#289=CARTESIAN_POINT('Ctrl Pts',(30.9648720194785,699.994555557746,18.8531046523223));
#290=CARTESIAN_POINT('Ctrl Pts',(28.0339591440723,766.663404648193,16.7775836518085));
#291=CARTESIAN_POINT('Ctrl Pts',(25.25237359445,833.269969944414,14.8269785748212));
#292=CARTESIAN_POINT('Ctrl Pts',(22.6235755560187,899.851881646721,13.0131743000681));
#293=CARTESIAN_POINT('Ctrl Pts',(19.164734775858,999.833746414616,10.6920175311092));
#294=CARTESIAN_POINT('Ctrl Pts',(16.1815091511315,1099.89984692683,8.74744152601693));
#295=CARTESIAN_POINT('Ctrl Pts',(14.4910483860438,1166.62869026447,7.68373986021119));
#296=CARTESIAN_POINT('Ctrl Pts',(13.7147787237123,1200.,7.20568438192873));
#297=CARTESIAN_POINT('Ctrl Pts',(53.7858004526116,0.,45.6789343899181));
#298=CARTESIAN_POINT('Ctrl Pts',(52.806276632007,33.3275065231646,44.2531092635883));
#299=CARTESIAN_POINT('Ctrl Pts',(50.7549347804294,99.986457504821,41.4229621396401));
#300=CARTESIAN_POINT('Ctrl Pts',(47.3939812526969,199.979715447424,37.2513520792212));
#301=CARTESIAN_POINT('Ctrl Pts',(43.7465642334374,299.985759685215,33.1688119538728));
#302=CARTESIAN_POINT('Ctrl Pts',(41.1367556506871,366.660316762009,30.5247885331326));
#303=CARTESIAN_POINT('Ctrl Pts',(38.4578810433837,433.33409910407,27.9340416740128));
#304=CARTESIAN_POINT('Ctrl Pts',(35.7091227523129,499.998760891112,25.3943798787849));
#305=CARTESIAN_POINT('Ctrl Pts',(31.5078388965089,599.996469514238,21.7888672255654));
#306=CARTESIAN_POINT('Ctrl Pts',(27.3913095023331,699.994581874771,18.4481185545652));
#307=CARTESIAN_POINT('Ctrl Pts',(24.8113331417166,766.663237310338,16.4358706812721));
#308=CARTESIAN_POINT('Ctrl Pts',(22.3589176741897,833.270137917013,14.5464766875509));
#309=CARTESIAN_POINT('Ctrl Pts',(20.0334560657269,899.853942245572,12.7818947774153));
#310=CARTESIAN_POINT('Ctrl Pts',(16.9676069243902,999.839565245386,10.5128325113626));
#311=CARTESIAN_POINT('Ctrl Pts',(14.3314929738996,1099.90671975374,8.61206305776262));
#312=CARTESIAN_POINT('Ctrl Pts',(12.8531467077081,1166.63207927854,7.58082991656814));
#313=CARTESIAN_POINT('Ctrl Pts',(12.180874879542,1200.,7.12195757604495));
#314=CARTESIAN_POINT('Ctrl Pts',(48.5055179512207,0.,43.9521590803793));
#315=CARTESIAN_POINT('Ctrl Pts',(47.6467446424425,33.3269188227922,42.6017591585444));
#316=CARTESIAN_POINT('Ctrl Pts',(45.8365526855687,99.9850459806213,39.9245461444517));
#317=CARTESIAN_POINT('Ctrl Pts',(42.841496317202,199.977992384846,35.9777599856384));
#318=CARTESIAN_POINT('Ctrl Pts',(39.5694834643385,299.984520503757,32.1046413194398));
#319=CARTESIAN_POINT('Ctrl Pts',(37.2197905756624,366.659844034142,29.5827237692561));
#320=CARTESIAN_POINT('Ctrl Pts',(34.8077115019363,433.334571672267,27.1017063502267));
#321=CARTESIAN_POINT('Ctrl Pts',(32.3342539987117,499.999670316996,24.6634944237762));
#322=CARTESIAN_POINT('Ctrl Pts',(28.5521084421852,599.997121628522,21.188435339993));
#323=CARTESIAN_POINT('Ctrl Pts',(24.8414630221403,699.994675817341,17.9594896425588));
#324=CARTESIAN_POINT('Ctrl Pts',(22.5102971226807,766.663166171308,16.0113905229699));
#325=CARTESIAN_POINT('Ctrl Pts',(20.2891046694867,833.270209021639,14.1819173847705));
#326=CARTESIAN_POINT('Ctrl Pts',(18.1756896959526,899.855286033203,12.4682179679936));
#327=CARTESIAN_POINT('Ctrl Pts',(15.3854647632421,999.84358695607,10.2583352809238));
#328=CARTESIAN_POINT('Ctrl Pts',(12.9968236234045,1099.91156530184,8.40935395899294));
#329=CARTESIAN_POINT('Ctrl Pts',(11.6742070713495,1166.63448595393,7.41423371184404));
#330=CARTESIAN_POINT('Ctrl Pts',(11.0798680663207,1200.,6.97544011371537));
#331=CARTESIAN_POINT('Ctrl Pts',(44.7708339452226,0.,42.5859385149392));
#332=CARTESIAN_POINT('Ctrl Pts',(43.9997929923957,33.3265389219646,41.2910808633057));
#333=CARTESIAN_POINT('Ctrl Pts',(42.3579580977017,99.9842188784148,38.7382243639014));
#334=CARTESIAN_POINT('Ctrl Pts',(39.6217873584514,199.976970387226,34.953005901197));
#335=CARTESIAN_POINT('Ctrl Pts',(36.6121150718101,299.983799126654,31.2350718533926));
#336=CARTESIAN_POINT('Ctrl Pts',(34.4411568242266,366.659565665402,28.809686019364));
#337=CARTESIAN_POINT('Ctrl Pts',(32.2147395546586,433.334849873627,26.4224975219359));
#338=CARTESIAN_POINT('Ctrl Pts',(29.933093155588,500.000250592875,24.0650706478624));
#339=CARTESIAN_POINT('Ctrl Pts',(26.4497715538219,599.997638098256,20.6854173491302));
#340=CARTESIAN_POINT('Ctrl Pts',(23.0291422463746,699.994888009034,17.5390916377761));
#341=CARTESIAN_POINT('Ctrl Pts',(20.8720610693252,766.663204842999,15.6460333618323));
#342=CARTESIAN_POINT('Ctrl Pts',(18.812826618442,833.270170579215,13.8761605589755));
#343=CARTESIAN_POINT('Ctrl Pts',(16.8469385809309,899.855902731346,12.2099500872129));
#344=CARTESIAN_POINT('Ctrl Pts',(14.2522177478752,999.845830588156,10.0467982661769));
#345=CARTESIAN_POINT('Ctrl Pts',(12.0468757051821,1099.91430075332,8.23788279515021));
#346=CARTESIAN_POINT('Ctrl Pts',(10.8208364236215,1166.63603618822,7.26094407375459));
#347=CARTESIAN_POINT('Ctrl Pts',(10.2906997909757,1200.,6.84322991405241));
#348=CARTESIAN_POINT('Ctrl Pts',(36.2958668745126,0.,38.6079438860056));
#349=CARTESIAN_POINT('Ctrl Pts',(35.7305826892678,33.3257809455513,37.4484335258657));
#350=CARTESIAN_POINT('Ctrl Pts',(34.461715452693,99.9828429650403,35.2431753323178));
#351=CARTESIAN_POINT('Ctrl Pts',(32.3059331080479,199.975228901111,31.8772572138353));
#352=CARTESIAN_POINT('Ctrl Pts',(29.8749182517583,299.982619285582,28.5772313944802));
#353=CARTESIAN_POINT('Ctrl Pts',(28.0916165018317,366.659099632124,26.4183849469197));
#354=CARTESIAN_POINT('Ctrl Pts',(26.2773428345875,433.335315438865,24.2970268769662));
#355=CARTESIAN_POINT('Ctrl Pts',(24.4222948767311,500.001383221365,22.1683124632716));
#356=CARTESIAN_POINT('Ctrl Pts',(21.6240848526437,599.998980349077,19.062728572823));
#357=CARTESIAN_POINT('Ctrl Pts',(18.87048664599,699.995809221679,16.1619890663427));
#358=CARTESIAN_POINT('Ctrl Pts',(17.1032260418422,766.663560042036,14.4397866750348));
#359=CARTESIAN_POINT('Ctrl Pts',(15.4072666751835,833.269816575649,12.859260769868));
#360=CARTESIAN_POINT('Ctrl Pts',(13.7695359451738,899.856312177841,11.3470725012073));
#361=CARTESIAN_POINT('Ctrl Pts',(11.6214509007523,999.849154785766,9.33629840656538));
#362=CARTESIAN_POINT('Ctrl Pts',(9.85816134186916,1099.91848335295,7.66013730905305));
#363=CARTESIAN_POINT('Ctrl Pts',(8.81307542259245,1166.63911147866,6.71480990191659));
#364=CARTESIAN_POINT('Ctrl Pts',(8.45613966981421,1200.,6.36649397190984));
#365=CARTESIAN_POINT('Ctrl Pts',(26.8337629464001,0.,32.5121305803178));
#366=CARTESIAN_POINT('Ctrl Pts',(26.500922894105,33.3250578066281,31.5162267108712));
#367=CARTESIAN_POINT('Ctrl Pts',(25.6344247491477,99.9818615100057,29.7889385337642));
#368=CARTESIAN_POINT('Ctrl Pts',(24.1171736778447,199.973931013821,27.0053438656223));
#369=CARTESIAN_POINT('Ctrl Pts',(22.3127261485387,299.981812965371,24.299701194267));
#370=CARTESIAN_POINT('Ctrl Pts',(20.9385963797948,366.658766149891,22.5104808444262));
#371=CARTESIAN_POINT('Ctrl Pts',(19.5662260956064,433.335648143603,20.7465306289812));
#372=CARTESIAN_POINT('Ctrl Pts',(18.1754157975621,500.002431460825,18.9527794474875));
#373=CARTESIAN_POINT('Ctrl Pts',(16.1534530970829,600.000647950493,16.3015496705289));
#374=CARTESIAN_POINT('Ctrl Pts',(14.1587320812673,699.997307513452,13.8232690913984));
#375=CARTESIAN_POINT('Ctrl Pts',(12.8199160483053,766.664244579275,12.3707484733081));
#376=CARTESIAN_POINT('Ctrl Pts',(11.5186586820855,833.269134289688,11.0617806216231));
#377=CARTESIAN_POINT('Ctrl Pts',(10.2388027364168,899.855693483317,9.79159056691858));
#378=CARTESIAN_POINT('Ctrl Pts',(8.59795242189851,999.850922880659,8.05913620678797));
#379=CARTESIAN_POINT('Ctrl Pts',(7.36219756399527,1099.9209364257,6.63444979861771));
#380=CARTESIAN_POINT('Ctrl Pts',(6.48209770720111,1166.64202268671,5.73668542671814));
#381=CARTESIAN_POINT('Ctrl Pts',(6.34578237770167,1200.,5.48982995901277));
#382=CARTESIAN_POINT('Ctrl Pts',(17.3751659505182,0.,24.9923465192874));
#383=CARTESIAN_POINT('Ctrl Pts',(17.2639824431113,33.3244343785695,24.1720305259292));
#384=CARTESIAN_POINT('Ctrl Pts',(16.7891153091238,99.9812283056887,22.9703311528837));
#385=CARTESIAN_POINT('Ctrl Pts',(15.9265636928105,199.973056754241,20.8290448031418));
#386=CARTESIAN_POINT('Ctrl Pts',(14.7600506751209,299.98133850325,18.7839656787426));
#387=CARTESIAN_POINT('Ctrl Pts',(13.7789501432086,366.658558591885,17.4063145760137));
#388=CARTESIAN_POINT('Ctrl Pts',(12.8152951268563,433.335854924421,16.039986762776));
#389=CARTESIAN_POINT('Ctrl Pts',(11.8744056280746,500.003310571613,14.6558435286945));
#390=CARTESIAN_POINT('Ctrl Pts',(10.6447673691218,600.002363656774,12.6220300982217));
#391=CARTESIAN_POINT('Ctrl Pts',(9.42853162846857,699.999046309667,10.727785516133));
#392=CARTESIAN_POINT('Ctrl Pts',(8.5107620614272,766.665083365383,9.61643657024144));
#393=CARTESIAN_POINT('Ctrl Pts',(7.58041102922536,833.268298090741,8.61521557543768));
#394=CARTESIAN_POINT('Ctrl Pts',(6.64747019672091,899.854462191444,7.64558762149664));
#395=CARTESIAN_POINT('Ctrl Pts',(5.52627513860549,999.85151152478,6.30777210313228));
#396=CARTESIAN_POINT('Ctrl Pts',(4.84576952770465,1099.92206614184,5.24810924132072));
#397=CARTESIAN_POINT('Ctrl Pts',(4.11838224436499,1166.6445165408,4.43165031664697));
#398=CARTESIAN_POINT('Ctrl Pts',(4.21068344819636,1200.,4.300789623807));
#399=CARTESIAN_POINT('Ctrl Pts',(10.7099755511905,0.,19.0974397411234));
#400=CARTESIAN_POINT('Ctrl Pts',(10.7502704733583,33.3240328467418,18.4107362905516));
#401=CARTESIAN_POINT('Ctrl Pts',(10.5474641192264,99.9809159887774,17.6001743523561));
#402=CARTESIAN_POINT('Ctrl Pts',(10.1547402394903,199.972607862237,15.9263233151155));
#403=CARTESIAN_POINT('Ctrl Pts',(9.44443452195923,299.981138168204,14.3636482398818));
#404=CARTESIAN_POINT('Ctrl Pts',(8.73435384564554,366.65846420909,13.2941799509289));
#405=CARTESIAN_POINT('Ctrl Pts',(8.04490465285363,433.335948774751,12.2333355027546));
#406=CARTESIAN_POINT('Ctrl Pts',(7.4150694939148,500.003864141515,11.1729079537901));
#407=CARTESIAN_POINT('Ctrl Pts',(6.75023679410313,600.00360517819,9.64065652774983));
#408=CARTESIAN_POINT('Ctrl Pts',(6.09090013156888,700.000386527444,8.22268333701216));
#409=CARTESIAN_POINT('Ctrl Pts',(5.46747477413262,766.665745817492,7.38321740511214));
#410=CARTESIAN_POINT('Ctrl Pts',(4.78959992668143,833.267637597758,6.61939570791787));
#411=CARTESIAN_POINT('Ctrl Pts',(4.09645669719997,899.853336311244,5.88831269895414));
#412=CARTESIAN_POINT('Ctrl Pts',(3.34495355051192,999.851457460271,4.87581473082984));
#413=CARTESIAN_POINT('Ctrl Pts',(3.06606913180674,1099.92235327864,4.11896522110838));
#414=CARTESIAN_POINT('Ctrl Pts',(2.44326547327384,1166.6461149626,3.37599013479771));
#415=CARTESIAN_POINT('Ctrl Pts',(2.7011642577807,1200.,3.33500696705498));
#416=CARTESIAN_POINT('Ctrl Pts',(5.09739700992331,0.,13.3375465977052));
#417=CARTESIAN_POINT('Ctrl Pts',(5.26503081660735,33.3237134076523,12.7823097723906));
#418=CARTESIAN_POINT('Ctrl Pts',(5.28694413856538,99.9807547676845,12.3411029906065));
#419=CARTESIAN_POINT('Ctrl Pts',(5.28538159435065,199.972360692418,11.1005216105119));
#420=CARTESIAN_POINT('Ctrl Pts',(4.95292160837716,299.98108292041,9.98554827298476));
#421=CARTESIAN_POINT('Ctrl Pts',(4.4650258532397,366.658429361382,9.21044699445652));
#422=CARTESIAN_POINT('Ctrl Pts',(4.00171679377928,433.33598308835,8.44951179131249));
#423=CARTESIAN_POINT('Ctrl Pts',(3.63052665998694,500.004290696964,7.70780301713388));
#424=CARTESIAN_POINT('Ctrl Pts',(3.44320789218424,600.00473213321,6.67050073925111));
#425=CARTESIAN_POINT('Ctrl Pts',(3.25666050153742,700.001678780115,5.72241865338612));
#426=CARTESIAN_POINT('Ctrl Pts',(2.88160643187211,766.666397909337,5.15040541992519));
#427=CARTESIAN_POINT('Ctrl Pts',(2.41669817946149,833.26698745152,4.61906818713739));
#428=CARTESIAN_POINT('Ctrl Pts',(1.92350595091189,899.852111912441,4.12271967256803));
#429=CARTESIAN_POINT('Ctrl Pts',(1.48175516201277,999.85100208395,3.43374291568013));
#430=CARTESIAN_POINT('Ctrl Pts',(1.54733850409677,1099.92218173697,2.97869434993968));
#431=CARTESIAN_POINT('Ctrl Pts',(1.01083287060103,1166.64737822779,2.31658432550603));
#432=CARTESIAN_POINT('Ctrl Pts',(1.41857555223023,1200.,2.36396064223552));
#433=CARTESIAN_POINT('Ctrl Pts',(1.24836325488621,0.,8.07793254324811));
#434=CARTESIAN_POINT('Ctrl Pts',(1.50983138572655,33.3234923619961,7.64794606324235));
#435=CARTESIAN_POINT('Ctrl Pts',(1.67851635361323,99.980733059843,7.54152772443622));
#436=CARTESIAN_POINT('Ctrl Pts',(1.91724211998364,199.972310295865,6.69800413748202));
#437=CARTESIAN_POINT('Ctrl Pts',(1.81339289594439,299.981162348529,5.99217845577069));
#438=CARTESIAN_POINT('Ctrl Pts',(1.46885035502163,366.658452439075,5.49025153670907));
#439=CARTESIAN_POINT('Ctrl Pts',(1.16787773613719,433.335959617241,5.01081068417348));
#440=CARTESIAN_POINT('Ctrl Pts',(0.973909859890143,500.004569086801,4.55962388250601));
#441=CARTESIAN_POINT('Ctrl Pts',(1.10998183066806,600.005675208572,3.96046570484262));
#442=CARTESIAN_POINT('Ctrl Pts',(1.24599521494908,700.002838896816,3.42619008984892));
#443=CARTESIAN_POINT('Ctrl Pts',(1.04581347410429,766.666995842998,3.09507223227103));
#444=CARTESIAN_POINT('Ctrl Pts',(0.740556926758311,833.266391199754,2.77979812196439));
#445=CARTESIAN_POINT('Ctrl Pts',(0.386022658151378,899.850892876694,2.49600492786412));
#446=CARTESIAN_POINT('Ctrl Pts',(0.148193694878461,999.850239532058,2.09328860924803));
#447=CARTESIAN_POINT('Ctrl Pts',(0.452800087433195,1099.92165308939,1.90466665624558));
#448=CARTESIAN_POINT('Ctrl Pts',(-0.0260895225620919,1166.64824297715,1.32420345848476));
#449=CARTESIAN_POINT('Ctrl Pts',(0.505905974344862,1200.,1.45404926478193));
#450=CARTESIAN_POINT('Ctrl Pts',(-0.453921586996795,0.,3.54722875624213));
#451=CARTESIAN_POINT('Ctrl Pts',(-0.141499861497367,33.3233857569098,3.23220881801468));
#452=CARTESIAN_POINT('Ctrl Pts',(0.0774916852933706,99.980839377107,3.41646709806316));
#453=CARTESIAN_POINT('Ctrl Pts',(0.369650236676085,199.972451588648,2.94147541825975));
#454=CARTESIAN_POINT('Ctrl Pts',(0.310553587745497,299.98136602787,2.61212426215037));
#455=CARTESIAN_POINT('Ctrl Pts',(0.0126160452286167,366.658531687804,2.35804777824589));
#456=CARTESIAN_POINT('Ctrl Pts',(-0.205558734650535,433.335880058494,2.12884573938292));
#457=CARTESIAN_POINT('Ctrl Pts',(-0.321072843265104,500.004678056541,1.92346209900536));
#458=CARTESIAN_POINT('Ctrl Pts',(-0.0475597459041777,600.006365096481,1.67548146795754));
#459=CARTESIAN_POINT('Ctrl Pts',(0.229664558251176,700.003782792156,1.46925206292419));
#460=CARTESIAN_POINT('Ctrl Pts',(0.114998593651438,766.667495898505,1.33702057540792));
#461=CARTESIAN_POINT('Ctrl Pts',(-0.097727347118762,833.265892531974,1.20988445119958));
#462=CARTESIAN_POINT('Ctrl Pts',(-0.38819427284691,899.849783097904,1.10241220966598));
#463=CARTESIAN_POINT('Ctrl Pts',(-0.54933771149988,999.849264032741,0.926199247448726));
#464=CARTESIAN_POINT('Ctrl Pts',(-0.134998087431701,1099.92086881081,0.947213192525349));
#465=CARTESIAN_POINT('Ctrl Pts',(-0.587114005101855,1166.64864600216,0.4469411336956));
#466=CARTESIAN_POINT('Ctrl Pts',(0.033650943074134,1200.,0.648964881517291));
#467=CARTESIAN_POINT('Ctrl Pts',(-0.291187093687498,0.,1.08672502815006));
#468=CARTESIAN_POINT('Ctrl Pts',(0.020370576877173,33.3234017876842,0.838780681410458));
#469=CARTESIAN_POINT('Ctrl Pts',(0.211777225821673,99.9809879059902,1.17981586474642));
#470=CARTESIAN_POINT('Ctrl Pts',(0.437630025159916,199.972670245496,0.932904209328728));
#471=CARTESIAN_POINT('Ctrl Pts',(0.30935416135983,299.981577704198,0.832959893631969));
#472=CARTESIAN_POINT('Ctrl Pts',(-0.0184034778654127,366.658620860288,0.723241460814183));
#473=CARTESIAN_POINT('Ctrl Pts',(-0.244896706599703,433.335790782587,0.631467785920664));
#474=CARTESIAN_POINT('Ctrl Pts',(-0.371592216763306,500.004623631111,0.554941173747011));
#475=CARTESIAN_POINT('Ctrl Pts',(-0.109870894544358,600.006610022562,0.480436160508612));
#476=CARTESIAN_POINT('Ctrl Pts',(0.161606794573273,700.004211814568,0.43338679441168));
#477=CARTESIAN_POINT('Ctrl Pts',(0.0477272818418001,766.667734836529,0.401252661803773));
#478=CARTESIAN_POINT('Ctrl Pts',(-0.157262726136368,833.265654208415,0.373254733525604));
#479=CARTESIAN_POINT('Ctrl Pts',(-0.454064262879783,899.849185340636,0.353631208101136));
#480=CARTESIAN_POINT('Ctrl Pts',(-0.63455439018994,999.848534514728,0.285057712479775));
#481=CARTESIAN_POINT('Ctrl Pts',(-0.220483404794253,1099.92024322938,0.405184177627064));
#482=CARTESIAN_POINT('Ctrl Pts',(-0.667223152532875,1166.64856466685,-0.0402734477358664));
#483=CARTESIAN_POINT('Ctrl Pts',(-0.0175052855591978,1200.,0.200086329516418));
#484=CARTESIAN_POINT('Ctrl Pts',(0.,0.,0.));
#485=CARTESIAN_POINT('Ctrl Pts',(0.300857257106202,33.3234343091118,-0.217477280008852));
#486=CARTESIAN_POINT('Ctrl Pts',(0.467289931157108,99.9810796474542,0.190388051533918));
#487=CARTESIAN_POINT('Ctrl Pts',(0.650084586339702,199.972809872008,0.0522456377075183));
#488=CARTESIAN_POINT('Ctrl Pts',(0.478272402350924,299.981700780425,0.0604409247001359));
#489=CARTESIAN_POINT('Ctrl Pts',(0.12459171321921,366.658674271298,0.0162771572697985));
#490=CARTESIAN_POINT('Ctrl Pts',(-0.124563190162506,433.335737380529,-0.016271862957917));
#491=CARTESIAN_POINT('Ctrl Pts',(-0.269200059458434,500.004561131161,-0.0372057280881021));
#492=CARTESIAN_POINT('Ctrl Pts',(-0.0253057568797012,600.006667183233,-0.0371498091451603));
#493=CARTESIAN_POINT('Ctrl Pts',(0.23236600388917,700.004362232902,-0.0164250413018281));
#494=CARTESIAN_POINT('Ctrl Pts',(0.108588693475988,766.667823393193,-0.00653919354097971));
#495=CARTESIAN_POINT('Ctrl Pts',(-0.108321909852803,833.265565828721,0.0065422489499128));
#496=CARTESIAN_POINT('Ctrl Pts',(-0.418388141748088,899.848939298437,0.022832579988692));
#497=CARTESIAN_POINT('Ctrl Pts',(-0.61660300951869,999.848165647157,-0.00124711025736508));
#498=CARTESIAN_POINT('Ctrl Pts',(-0.211841741241205,1099.91992168866,0.159979789237543));
#499=CARTESIAN_POINT('Ctrl Pts',(-0.655001825734334,1166.64842593477,-0.256355580651323));
#500=CARTESIAN_POINT('Ctrl Pts',(9.13071735902418E-17,1200.,-1.04364576975385E-15));
#501=CARTESIAN_POINT('Ctrl Pts',(193.185165257814,0.,51.7638090205041));
#502=CARTESIAN_POINT('Ctrl Pts',(191.158547738683,15.989311026152,50.5798161730341));
#503=CARTESIAN_POINT('Ctrl Pts',(187.063910781121,47.9663311936313,48.2473171074789));
#504=CARTESIAN_POINT('Ctrl Pts',(180.797750448575,95.9270558251774,44.8550277257348));
#505=CARTESIAN_POINT('Ctrl Pts',(172.192646232176,159.865007214649,40.5464471530025));
#506=CARTESIAN_POINT('Ctrl Pts',(161.020023952325,239.771561243142,35.5276245222474));
#507=CARTESIAN_POINT('Ctrl Pts',(149.452783445238,319.6637302142,30.8877763247325));
#508=CARTESIAN_POINT('Ctrl Pts',(137.550406291917,399.545156628061,26.6377804395837));
#509=CARTESIAN_POINT('Ctrl Pts',(125.42892538275,479.422592963754,22.7825701394114));
#510=CARTESIAN_POINT('Ctrl Pts',(113.281965735169,559.306978708489,19.3152280651849));
#511=CARTESIAN_POINT('Ctrl Pts',(101.348282530107,639.211677120388,16.2214121765244));
#512=CARTESIAN_POINT('Ctrl Pts',(89.88009948945,719.150734846476,13.4827215805072));
#513=CARTESIAN_POINT('Ctrl Pts',(79.1112014166168,799.137105021426,11.0790272874849));
#514=CARTESIAN_POINT('Ctrl Pts',(69.2236890758815,879.180774296563,8.98990541679155));
#515=CARTESIAN_POINT('Ctrl Pts',(60.3112494296026,959.286671589289,7.19520762320162));
#516=CARTESIAN_POINT('Ctrl Pts',(52.4072228999687,1039.45632445224,5.67731571064545));
#517=CARTESIAN_POINT('Ctrl Pts',(46.8891383521326,1103.64272601789,4.67365777704469));
#518=CARTESIAN_POINT('Ctrl Pts',(43.1963580788894,1151.81054577668,4.03564811131838));
#519=CARTESIAN_POINT('Ctrl Pts',(40.9311959105537,1183.93478815756,3.66093187032151));
#520=CARTESIAN_POINT('Ctrl Pts',(39.8477879236698,1200.,3.48622970990633));
#521=CARTESIAN_POINT('Ctrl Pts',(0.,2.72595308178325E-16,0.));
#522=CARTESIAN_POINT('Ctrl Pts',(0.300857257106202,33.3234343091118,-0.217477280008852));
#523=CARTESIAN_POINT('Ctrl Pts',(0.467289358779237,99.9810796517298,0.190387858225604));
#524=CARTESIAN_POINT('Ctrl Pts',(0.650083347160318,199.972809881301,0.052245212223496));
#525=CARTESIAN_POINT('Ctrl Pts',(0.478270300221745,299.981700796124,0.0604402153140196));
#526=CARTESIAN_POINT('Ctrl Pts',(-0.0522433976992877,399.995455425783,-0.00580491831546802));
#527=CARTESIAN_POINT('Ctrl Pts',(-0.269202694650354,500.007355396713,-0.0372079710824965));
#528=CARTESIAN_POINT('Ctrl Pts',(-0.0253103330378382,600.007784496134,-0.0371528131473092));
#529=CARTESIAN_POINT('Ctrl Pts',(0.232349787941507,700.003803513148,-0.0164298185437523));
#530=CARTESIAN_POINT('Ctrl Pts',(0.0467550130728139,799.960115351652,-0.00161037478019686));
#531=CARTESIAN_POINT('Ctrl Pts',(-0.418597044862688,899.90681238934,0.0228237368106913));
#532=CARTESIAN_POINT('Ctrl Pts',(-0.616634178529214,999.871331423587,-0.00128772288178991));
#533=CARTESIAN_POINT('Ctrl Pts',(-0.211782975679861,1099.90834935545,0.160023422082551));
#534=CARTESIAN_POINT('Ctrl Pts',(-0.655229487615535,1166.63683378068,-0.256444683294176));
#535=CARTESIAN_POINT('Ctrl Pts',(0.,1200.,0.));
#536=CARTESIAN_POINT('Ctrl Pts',(0.,0.,0.));
#537=CARTESIAN_POINT('Ctrl Pts',(0.300857257106202,33.3234343091118,-0.217477280008852));
#538=CARTESIAN_POINT('Ctrl Pts',(0.467289931157108,99.9810796474542,0.190388051533918));
#539=CARTESIAN_POINT('Ctrl Pts',(0.650084586339701,199.972809872008,0.0522456377075201));
#540=CARTESIAN_POINT('Ctrl Pts',(0.478272402350923,299.981700780425,0.060440924700139));
#541=CARTESIAN_POINT('Ctrl Pts',(0.124591713219209,366.658674271298,0.016277157269802));
#542=CARTESIAN_POINT('Ctrl Pts',(-0.124563190162506,433.335737380529,-0.0162718629579135));
#543=CARTESIAN_POINT('Ctrl Pts',(-0.269200059458434,500.004561131161,-0.0372057280880985));
#544=CARTESIAN_POINT('Ctrl Pts',(-0.0253057568797019,600.006667183233,-0.0371498091451565));
#545=CARTESIAN_POINT('Ctrl Pts',(0.23236600388917,700.004362232902,-0.0164250413018241));
#546=CARTESIAN_POINT('Ctrl Pts',(0.108588693475988,766.667823393193,-0.00653919354097569));
#547=CARTESIAN_POINT('Ctrl Pts',(-0.108321909852803,833.265565828721,0.00654224894991683));
#548=CARTESIAN_POINT('Ctrl Pts',(-0.418388141748088,899.848939298437,0.0228325799886956));
#549=CARTESIAN_POINT('Ctrl Pts',(-0.61660300951869,999.848165647157,-0.00124711025736253));
#550=CARTESIAN_POINT('Ctrl Pts',(-0.211841741241205,1099.91992168866,0.159979789237544));
#551=CARTESIAN_POINT('Ctrl Pts',(-0.655001825734334,1166.64842593477,-0.256355580651322));
#552=CARTESIAN_POINT('Ctrl Pts',(0.,1200.,0.));
#553=CARTESIAN_POINT('Ctrl Pts',(0.652025965220853,0.,-2.43339403005836));
#554=CARTESIAN_POINT('Ctrl Pts',(0.928922862940358,33.3235071310729,-2.58264947255031));
#555=CARTESIAN_POINT('Ctrl Pts',(1.03943382741552,99.9812850748853,-2.02513811329877));
#556=CARTESIAN_POINT('Ctrl Pts',(1.12581271207693,199.973122523608,-1.9197245067096));
#557=CARTESIAN_POINT('Ctrl Pts',(0.856514026081087,299.981976372638,-1.66938308635225));
#558=CARTESIAN_POINT('Ctrl Pts',(0.444786459175064,366.658793869199,-1.56675688643653));
#559=CARTESIAN_POINT('Ctrl Pts',(0.144887547539444,433.335617802674,-1.46669009552261));
#560=CARTESIAN_POINT('Ctrl Pts',(-0.039923602345247,500.00442118131,-1.36314071487681));
#561=CARTESIAN_POINT('Ctrl Pts',(0.164052448566755,600.006795177372,-1.19612800139448));
#562=CARTESIAN_POINT('Ctrl Pts',(0.390809982872589,700.004699049545,-1.02364343355523));
#563=CARTESIAN_POINT('Ctrl Pts',(0.244869529837768,766.668021689222,-0.919666471001003));
#564=CARTESIAN_POINT('Ctrl Pts',(0.0012663365625331,833.265367928963,-0.814600126167198));
#565=CARTESIAN_POINT('Ctrl Pts',(-0.338502192746528,899.848388360892,-0.717891509315299));
#566=CARTESIAN_POINT('Ctrl Pts',(-0.576406288705985,999.847339679116,-0.642340697299762));
#567=CARTESIAN_POINT('Ctrl Pts',(-0.192491333405699,1099.91920169487,-0.389081729909483));
#568=CARTESIAN_POINT('Ctrl Pts',(-0.627635838110415,1166.64811528596,-0.740206562839377));
#569=CARTESIAN_POINT('Ctrl Pts',(0.0391978249058329,1200.,-0.448033188828253));
#570=CARTESIAN_POINT('Ctrl Pts',(3.6942822437746,0.,-5.84823779304138));
#571=CARTESIAN_POINT('Ctrl Pts',(3.90219575812653,33.3237521736577,-5.88771719167817));
#572=CARTESIAN_POINT('Ctrl Pts',(3.83995087168637,99.9819014465025,-5.14195732515921));
#573=CARTESIAN_POINT('Ctrl Pts',(3.605496145839,199.974016351607,-4.7801409112071));
#574=CARTESIAN_POINT('Ctrl Pts',(3.0120062288387,299.982708198175,-4.2737788077248));
#575=CARTESIAN_POINT('Ctrl Pts',(2.41945896792622,366.659095683064,-3.97607886864297));
#576=CARTESIAN_POINT('Ctrl Pts',(1.97330153467305,433.335316601742,-3.65757526764453));
#577=CARTESIAN_POINT('Ctrl Pts',(1.62757068512102,500.003997221207,-3.36609167379906));
#578=CARTESIAN_POINT('Ctrl Pts',(1.57420274504624,600.006875339734,-2.97483750547039));
#579=CARTESIAN_POINT('Ctrl Pts',(1.5627505476082,700.00524974967,-2.60214041195436));
#580=CARTESIAN_POINT('Ctrl Pts',(1.29415426969821,766.668375864974,-2.35823709261567));
#581=CARTESIAN_POINT('Ctrl Pts',(0.955264580706484,833.265013723909,-2.09908422777175));
#582=CARTESIAN_POINT('Ctrl Pts',(0.495478433309132,899.84719353667,-1.87672046507231));
#583=CARTESIAN_POINT('Ctrl Pts',(0.0590994437095526,999.84518628067,-1.65978050719592));
#584=CARTESIAN_POINT('Ctrl Pts',(0.282992001530921,1099.91714587879,-1.27743104616068));
#585=CARTESIAN_POINT('Ctrl Pts',(-0.181958393466717,1166.64709099031,-1.51924974440318));
#586=CARTESIAN_POINT('Ctrl Pts',(0.488482379050756,1200.,-1.16639672580291));
#587=CARTESIAN_POINT('Ctrl Pts',(11.7840406728702,0.,-7.0334781617408));
#588=CARTESIAN_POINT('Ctrl Pts',(11.8489861046482,33.3243147537526,-6.99239944616033));
#589=CARTESIAN_POINT('Ctrl Pts',(11.4137661618241,99.983215164741,-6.25036819667685));
#590=CARTESIAN_POINT('Ctrl Pts',(10.457021668479,199.975846461366,-6.0618534674125));
#591=CARTESIAN_POINT('Ctrl Pts',(9.13376757477984,299.984113407511,-5.72324235733032));
#592=CARTESIAN_POINT('Ctrl Pts',(8.14826055110492,366.659646721298,-5.39050426909104));
#593=CARTESIAN_POINT('Ctrl Pts',(7.39845817513762,433.33476708727,-4.89613035094991));
#594=CARTESIAN_POINT('Ctrl Pts',(6.65110443042921,500.003088505779,-4.49985283938267));
#595=CARTESIAN_POINT('Ctrl Pts',(5.8496869269477,600.00656418562,-4.06596450308498));
#596=CARTESIAN_POINT('Ctrl Pts',(5.11834727244468,700.00569239266,-3.66702104338316));
#597=CARTESIAN_POINT('Ctrl Pts',(4.50442771375788,766.668747330604,-3.35092893858457));
#598=CARTESIAN_POINT('Ctrl Pts',(3.93662854254897,833.264641198998,-2.9601037190652));
#599=CARTESIAN_POINT('Ctrl Pts',(3.17550777784006,899.845376847036,-2.65493674007658));
#600=CARTESIAN_POINT('Ctrl Pts',(2.20325851260802,999.841113986837,-2.38624247315009));
#601=CARTESIAN_POINT('Ctrl Pts',(1.94442529645423,1099.912922009,-1.96141445231876));
#602=CARTESIAN_POINT('Ctrl Pts',(1.33266758026551,1166.64476752382,-2.10900254644778));
#603=CARTESIAN_POINT('Ctrl Pts',(1.95921496821223,1200.,-1.70234864177503));
#604=CARTESIAN_POINT('Ctrl Pts',(23.4812656426397,0.,-6.19253362488579));
#605=CARTESIAN_POINT('Ctrl Pts',(23.3424300935347,33.325141749134,-6.11755659648493));
#606=CARTESIAN_POINT('Ctrl Pts',(22.3911636240876,99.9851014647626,-5.54373458218576));
#607=CARTESIAN_POINT('Ctrl Pts',(20.4458165546577,199.978431098591,-5.83138847167943));
#608=CARTESIAN_POINT('Ctrl Pts',(18.1229784888986,299.986047886344,-5.95739210265822));
#609=CARTESIAN_POINT('Ctrl Pts',(16.5911940265397,366.660388958319,-5.72494801310009));
#610=CARTESIAN_POINT('Ctrl Pts',(15.408026817783,433.334026734587,-5.13206743651036));
#611=CARTESIAN_POINT('Ctrl Pts',(14.085280171223,500.001782542124,-4.72454284387019));
#612=CARTESIAN_POINT('Ctrl Pts',(12.2040675375759,600.005869878456,-4.40682219678157));
#613=CARTESIAN_POINT('Ctrl Pts',(10.4267576380915,700.005950740451,-4.12905658839051));
#614=CARTESIAN_POINT('Ctrl Pts',(9.30507025510899,766.669082239069,-3.8114588262502));
#615=CARTESIAN_POINT('Ctrl Pts',(8.3935096309686,833.264304842451,-3.33612550576035));
#616=CARTESIAN_POINT('Ctrl Pts',(7.19759166608538,899.843146215516,-3.0017865474335));
#617=CARTESIAN_POINT('Ctrl Pts',(5.46452534237716,999.835533892408,-2.76578983036348));
#618=CARTESIAN_POINT('Ctrl Pts',(4.50632558879332,1099.90692977958,-2.37796168527249));
#619=CARTESIAN_POINT('Ctrl Pts',(3.66086767855203,1166.64136456818,-2.4563929917571));
#620=CARTESIAN_POINT('Ctrl Pts',(4.19688801442111,1200.,-2.01263511542327));
#621=CARTESIAN_POINT('Ctrl Pts',(34.1618958671118,0.,-4.20109553757286));
#622=CARTESIAN_POINT('Ctrl Pts',(33.8275380620348,33.3259505489162,-4.14962734262804));
#623=CARTESIAN_POINT('Ctrl Pts',(32.4110752215497,99.9869164252466,-3.8077938986826));
#624=CARTESIAN_POINT('Ctrl Pts',(29.6039438757448,199.980887520863,-4.58663592159915));
#625=CARTESIAN_POINT('Ctrl Pts',(26.4084925385764,299.987852106648,-5.19009272254789));
#626=CARTESIAN_POINT('Ctrl Pts',(24.3813854240771,366.661070533841,-5.11633795999405));
#627=CARTESIAN_POINT('Ctrl Pts',(22.7817729273706,433.33334743934,-4.53407485703611));
#628=CARTESIAN_POINT('Ctrl Pts',(20.932486607737,500.000526338355,-4.19635794896757));
#629=CARTESIAN_POINT('Ctrl Pts',(18.089270841113,600.005038190312,-4.06787182135519));
#630=CARTESIAN_POINT('Ctrl Pts',(15.3780533267007,700.005948472766,-3.97148478611042));
#631=CARTESIAN_POINT('Ctrl Pts',(13.7860076154434,766.669272097598,-3.70768551838448));
#632=CARTESIAN_POINT('Ctrl Pts',(12.5323385502216,833.264112673448,-3.22256008516488));
#633=CARTESIAN_POINT('Ctrl Pts',(10.9345289638503,899.841251057252,-2.91445983481067));
#634=CARTESIAN_POINT('Ctrl Pts',(8.53072211490276,999.830339560095,-2.76207122804533));
#635=CARTESIAN_POINT('Ctrl Pts',(6.9511853766085,1099.90120557015,-2.45577270031486));
#636=CARTESIAN_POINT('Ctrl Pts',(5.88251742325433,1166.63804634529,-2.50657336134324));
#637=CARTESIAN_POINT('Ctrl Pts',(6.3126335594484,1200.,-2.05454302295447));
#638=CARTESIAN_POINT('Ctrl Pts',(43.6408337244575,0.,-2.17696547813562));
#639=CARTESIAN_POINT('Ctrl Pts',(43.1167543403888,33.3267378259503,-2.17685355679622));
#640=CARTESIAN_POINT('Ctrl Pts',(41.2817946890699,99.9886737331833,-2.05839977366932));
#641=CARTESIAN_POINT('Ctrl Pts',(37.7366962829256,199.983246976791,-3.22149059535709));
#642=CARTESIAN_POINT('Ctrl Pts',(33.7925727222421,299.989569047336,-4.19438411745821));
#643=CARTESIAN_POINT('Ctrl Pts',(31.3172139129119,366.661713974561,-4.26968507319117));
#644=CARTESIAN_POINT('Ctrl Pts',(29.3129070390783,433.332705917872,-3.75099282108221));
#645=CARTESIAN_POINT('Ctrl Pts',(26.9907199828151,499.999311809112,-3.5082334611885));
#646=CARTESIAN_POINT('Ctrl Pts',(23.327772499439,600.00415933698,-3.56194829689305));
#647=CARTESIAN_POINT('Ctrl Pts',(19.8218824357619,700.005831508084,-3.63373900794355));
#648=CARTESIAN_POINT('Ctrl Pts',(17.8070667422519,766.669394649299,-3.43655129250418));
#649=CARTESIAN_POINT('Ctrl Pts',(16.2150066881709,833.26398817547,-2.97806039280725));
#650=CARTESIAN_POINT('Ctrl Pts',(14.2523160360446,899.839532420175,-2.7161697129108));
#651=CARTESIAN_POINT('Ctrl Pts',(11.2803050508154,999.825390449739,-2.65137992710942));
#652=CARTESIAN_POINT('Ctrl Pts',(9.17594057756227,1099.8956723215,-2.42751944278045));
#653=CARTESIAN_POINT('Ctrl Pts',(7.90716070872848,1166.63481977037,-2.46565985070475));
#654=CARTESIAN_POINT('Ctrl Pts',(8.22514030855143,1200.,-2.01948191085356));
#655=CARTESIAN_POINT('Ctrl Pts',(53.2353471230205,0.,-0.0308846447697794));
#656=CARTESIAN_POINT('Ctrl Pts',(52.5131302984028,33.3275605041299,-0.0941725238761296));
#657=CARTESIAN_POINT('Ctrl Pts',(50.2524149645044,99.9905069277629,-0.208523156408022));
#658=CARTESIAN_POINT('Ctrl Pts',(45.9705405975047,199.985701656274,-1.74201675229193));
#659=CARTESIAN_POINT('Ctrl Pts',(41.2783792803006,299.991349829898,-3.06932136700215));
#660=CARTESIAN_POINT('Ctrl Pts',(38.3460235007178,366.662379706472,-3.29882562037299));
#661=CARTESIAN_POINT('Ctrl Pts',(35.9188203138162,433.332042198519,-2.86470788787803));
#662=CARTESIAN_POINT('Ctrl Pts',(33.1157581717332,499.998045643662,-2.73036614187538));
#663=CARTESIAN_POINT('Ctrl Pts',(28.6357412606562,600.003218326174,-2.97374746554419));
#664=CARTESIAN_POINT('Ctrl Pts',(24.3382034387363,700.005671447739,-3.218375828187));
#665=CARTESIAN_POINT('Ctrl Pts',(21.8933753203623,766.669502098868,-3.09563186041089));
#666=CARTESIAN_POINT('Ctrl Pts',(19.9456835998751,833.26387863862,-2.67729445600636));
#667=CARTESIAN_POINT('Ctrl Pts',(17.6105318895416,899.837778122155,-2.47067973100984));
#668=CARTESIAN_POINT('Ctrl Pts',(14.0735096342801,999.820253722676,-2.49941105270884));
#669=CARTESIAN_POINT('Ctrl Pts',(11.4479263269077,1099.88990181525,-2.36260354773471));
#670=CARTESIAN_POINT('Ctrl Pts',(9.97564094665593,1166.63144948464,-2.39243846479244));
#671=CARTESIAN_POINT('Ctrl Pts',(10.1733565186259,1200.,-1.95710757984997));
#672=CARTESIAN_POINT('Ctrl Pts',(71.1019654691638,0.,4.27057536921422));
#673=CARTESIAN_POINT('Ctrl Pts',(69.9799080072986,33.3292201447053,4.03787661088118));
#674=CARTESIAN_POINT('Ctrl Pts',(66.9138254746364,99.994194039088,3.46800104178473));
#675=CARTESIAN_POINT('Ctrl Pts',(61.3072512688534,199.990608813491,1.35310565420633));
#676=CARTESIAN_POINT('Ctrl Pts',(55.2672779273389,299.994887257643,-0.521040911791249));
#677=CARTESIAN_POINT('Ctrl Pts',(51.4658371595838,366.663695537491,-1.04381038747145));
#678=CARTESIAN_POINT('Ctrl Pts',(48.1840039878904,433.330730401498,-0.857419068555095));
#679=CARTESIAN_POINT('Ctrl Pts',(44.4738827932964,499.995503338382,-0.976516150410209));
#680=CARTESIAN_POINT('Ctrl Pts',(38.5356749452805,600.001227663132,-1.58643191786433));
#681=CARTESIAN_POINT('Ctrl Pts',(32.8280792933625,700.005194171691,-2.15438861969005));
#682=CARTESIAN_POINT('Ctrl Pts',(29.5725277378726,766.669634510856,-2.19802156257476));
#683=CARTESIAN_POINT('Ctrl Pts',(26.8975948446271,833.263741870731,-1.91300331732127));
#684=CARTESIAN_POINT('Ctrl Pts',(23.8530175400109,899.834407737645,-1.84535085207977));
#685=CARTESIAN_POINT('Ctrl Pts',(19.3136522439358,999.810028173796,-2.06459204748735));
#686=CARTESIAN_POINT('Ctrl Pts',(15.7678810049415,1099.87829623851,-2.10066587576216));
#687=CARTESIAN_POINT('Ctrl Pts',(13.9131042676118,1166.62465595497,-2.13294997101047));
#688=CARTESIAN_POINT('Ctrl Pts',(13.8549354279407,1200.,-1.73958264942897));
#689=CARTESIAN_POINT('Ctrl Pts',(97.1084803036687,0.,11.2699084390347));
#690=CARTESIAN_POINT('Ctrl Pts',(95.3215089202864,33.3319493579561,10.6596029029588));
#691=CARTESIAN_POINT('Ctrl Pts',(91.0472890174165,100.000254929402,9.37067592544212));
#692=CARTESIAN_POINT('Ctrl Pts',(83.6407691169048,199.998587208316,6.66785996968933));
#693=CARTESIAN_POINT('Ctrl Pts',(75.7609621046987,300.000593720735,4.2692731406901));
#694=CARTESIAN_POINT('Ctrl Pts',(70.6442699013667,366.665807745653,3.29932359132759));
#695=CARTESIAN_POINT('Ctrl Pts',(65.9363539372677,433.328624952594,2.89761065783042));
#696=CARTESIAN_POINT('Ctrl Pts',(60.8703354067983,499.991345203938,2.28316515699705));
#697=CARTESIAN_POINT('Ctrl Pts',(52.9728755014284,599.997785729808,1.11666264384344));
#698=CARTESIAN_POINT('Ctrl Pts',(45.3789529938526,700.004123958649,0.0850340089739219));
#699=CARTESIAN_POINT('Ctrl Pts',(40.9135292629604,766.669692949582,-0.267061795733093));
#700=CARTESIAN_POINT('Ctrl Pts',(37.0057436571151,833.263675685105,-0.323381638382503));
#701=CARTESIAN_POINT('Ctrl Pts',(32.884376351135,899.829164795362,-0.544666645825244));
#702=CARTESIAN_POINT('Ctrl Pts',(27.016473774505,999.79340387352,-1.07166907328551));
#703=CARTESIAN_POINT('Ctrl Pts',(22.2666405893132,1099.85914174715,-1.37566651658168));
#704=CARTESIAN_POINT('Ctrl Pts',(19.8370333601176,1166.61349589431,-1.45955201699617));
#705=CARTESIAN_POINT('Ctrl Pts',(19.3253121800691,1200.,-1.18193248844582));
#706=CARTESIAN_POINT('Ctrl Pts',(127.364074557312,0.,21.5359631878449));
#707=CARTESIAN_POINT('Ctrl Pts',(124.763336299722,33.335189480134,20.3713767119172));
#708=CARTESIAN_POINT('Ctrl Pts',(119.075920567466,100.007507435413,18.1087058711741));
#709=CARTESIAN_POINT('Ctrl Pts',(109.689781165594,200.008002088874,14.6088866084631));
#710=CARTESIAN_POINT('Ctrl Pts',(99.7788333528785,300.00730093226,11.4982486469932));
#711=CARTESIAN_POINT('Ctrl Pts',(93.1175284893269,366.668290402422,9.87439354895125));
#712=CARTESIAN_POINT('Ctrl Pts',(86.6549790018163,433.326149220402,8.58824773518825));
#713=CARTESIAN_POINT('Ctrl Pts',(79.9856569475244,499.986415122999,7.25454611339232));
#714=CARTESIAN_POINT('Ctrl Pts',(69.8821161300121,599.993633296196,5.32435302323367));
#715=CARTESIAN_POINT('Ctrl Pts',(60.1650332259608,700.002734909578,3.66230266480614));
#716=CARTESIAN_POINT('Ctrl Pts',(54.2623545049618,766.66968686721,2.85860294738669));
#717=CARTESIAN_POINT('Ctrl Pts',(48.8201295313836,833.263673789889,2.27245611322179));
#718=CARTESIAN_POINT('Ctrl Pts',(43.4204045138907,899.823025265256,1.627192951134));
#719=CARTESIAN_POINT('Ctrl Pts',(36.0813640893962,999.773555981807,0.68007494964356));
#720=CARTESIAN_POINT('Ctrl Pts',(30.0058897815395,1099.83596369061,0.0145825139916768));
#721=CARTESIAN_POINT('Ctrl Pts',(26.8507189164186,1166.60025138532,-0.212886565279872));
#722=CARTESIAN_POINT('Ctrl Pts',(25.7625360429059,1200.,-0.120137063120934));
#723=CARTESIAN_POINT('Ctrl Pts',(159.292518622976,0.,34.8953661204404));
#724=CARTESIAN_POINT('Ctrl Pts',(155.859048940932,33.338344519522,33.0946471652071));
#725=CARTESIAN_POINT('Ctrl Pts',(148.703417896617,100.014685554391,29.6682175773374));
#726=CARTESIAN_POINT('Ctrl Pts',(137.267678127991,200.017160864047,24.9423481430595));
#727=CARTESIAN_POINT('Ctrl Pts',(125.250754819444,300.013825565779,20.6999263016499));
#728=CARTESIAN_POINT('Ctrl Pts',(116.987516419464,366.670718750467,18.2117413458582));
#729=CARTESIAN_POINT('Ctrl Pts',(108.716775366492,433.323725938978,15.9030293886684));
#730=CARTESIAN_POINT('Ctrl Pts',(100.356179089891,499.981602334799,13.7084767767249));
#731=CARTESIAN_POINT('Ctrl Pts',(87.8799397948813,599.989658007563,10.8051536565314));
#732=CARTESIAN_POINT('Ctrl Pts',(75.8708987496905,700.00148291668,8.32012154754142));
#733=CARTESIAN_POINT('Ctrl Pts',(68.4385595270842,766.669718021503,6.95669406089982));
#734=CARTESIAN_POINT('Ctrl Pts',(61.4032425637122,833.263637026918,5.74809079770875));
#735=CARTESIAN_POINT('Ctrl Pts',(54.6641520518072,899.816863067727,4.60151841882458));
#736=CARTESIAN_POINT('Ctrl Pts',(45.763077080704,999.753779600958,3.13784548294999));
#737=CARTESIAN_POINT('Ctrl Pts',(38.2753737002389,1099.81259723946,2.02289403097919));
#738=CARTESIAN_POINT('Ctrl Pts',(34.2740545635021,1166.58735204714,1.5489198443747));
#739=CARTESIAN_POINT('Ctrl Pts',(32.5868859435719,1200.,1.42137699324796));
#740=CARTESIAN_POINT('Ctrl Pts',(181.702410075382,0.,45.8144151541402));
#741=CARTESIAN_POINT('Ctrl Pts',(177.732360667343,33.3402227946979,43.5667666773161));
#742=CARTESIAN_POINT('Ctrl Pts',(169.571075925979,100.019081876427,39.2662613307739));
#743=CARTESIAN_POINT('Ctrl Pts',(156.677059194489,200.022633261111,33.3770208718261));
#744=CARTESIAN_POINT('Ctrl Pts',(143.162199308683,300.017740331656,28.037534494406));
#745=CARTESIAN_POINT('Ctrl Pts',(133.808440189701,366.672195152963,24.8383620867763));
#746=CARTESIAN_POINT('Ctrl Pts',(124.361009969258,433.322252075872,21.8123084127946));
#747=CARTESIAN_POINT('Ctrl Pts',(114.828328674899,499.978718880831,18.9729384982804));
#748=CARTESIAN_POINT('Ctrl Pts',(100.611714584643,599.987430831678,15.2629454009613));
#749=CARTESIAN_POINT('Ctrl Pts',(86.9126258829019,700.000953669381,12.0746819737692));
#750=CARTESIAN_POINT('Ctrl Pts',(78.4088386353324,766.669835940044,10.2735409179956));
#751=CARTESIAN_POINT('Ctrl Pts',(70.3315660595988,833.26351633468,8.6236714757712));
#752=CARTESIAN_POINT('Ctrl Pts',(62.6769817200925,899.812885543263,7.10907190257571));
#753=CARTESIAN_POINT('Ctrl Pts',(52.6399328243911,999.741452837876,5.23167653480828));
#754=CARTESIAN_POINT('Ctrl Pts',(44.1183915907036,1099.79785572923,3.74988373937978));
#755=CARTESIAN_POINT('Ctrl Pts',(39.4587315436731,1166.57966896576,3.03464640100838));
#756=CARTESIAN_POINT('Ctrl Pts',(37.3864764705012,1200.,2.74949322009296));
#757=CARTESIAN_POINT('Ctrl Pts',(193.185165257814,0.,51.7638090205041));
#758=CARTESIAN_POINT('Ctrl Pts',(188.95924328476,33.3410622189772,49.2949359633875));
#759=CARTESIAN_POINT('Ctrl Pts',(180.290968629463,100.021098394673,44.5414078606742));
#760=CARTESIAN_POINT('Ctrl Pts',(166.633653443205,200.02509470068,37.9734674576581));
#761=CARTESIAN_POINT('Ctrl Pts',(152.335477020353,300.019510583524,31.9885933789168));
#762=CARTESIAN_POINT('Ctrl Pts',(142.434761869791,366.672870394893,28.4031087241582));
#763=CARTESIAN_POINT('Ctrl Pts',(132.422309046336,433.321576947119,25.0235882773644));
#764=CARTESIAN_POINT('Ctrl Pts',(122.296444547926,499.977419645154,21.8494066689458));
#765=CARTESIAN_POINT('Ctrl Pts',(107.159593909542,599.986499241836,17.6903924927883));
#766=CARTESIAN_POINT('Ctrl Pts',(92.564043468815,700.000819528267,14.1036861122555));
#767=CARTESIAN_POINT('Ctrl Pts',(83.5145822185315,766.6699376066,12.0688835322501));
#768=CARTESIAN_POINT('Ctrl Pts',(74.9361696959117,833.263414871292,10.2006749272912));
#769=CARTESIAN_POINT('Ctrl Pts',(66.8229772501449,899.810965847455,8.49751121889495));
#770=CARTESIAN_POINT('Ctrl Pts',(56.1866790971504,999.735707660246,6.39309920566556));
#771=CARTESIAN_POINT('Ctrl Pts',(47.1172522744787,1099.79093342202,4.70735145816083));
#772=CARTESIAN_POINT('Ctrl Pts',(42.101824690469,1166.57623111731,3.84969859474232));
#773=CARTESIAN_POINT('Ctrl Pts',(39.8477879236698,1200.,3.48622970990633));
#774=UNCERTAINTY_MEASURE_WITH_UNIT(LENGTH_MEASURE(0.01),#778,
'DISTANCE_ACCURACY_VALUE',
'Maximum model space distance between geometric entities at asserted c
onnectivities');
#775=UNCERTAINTY_MEASURE_WITH_UNIT(LENGTH_MEASURE(0.01),#778,
'DISTANCE_ACCURACY_VALUE',
'Maximum model space distance between geometric entities at asserted c
onnectivities');
#776=(
GEOMETRIC_REPRESENTATION_CONTEXT(3)
GLOBAL_UNCERTAINTY_ASSIGNED_CONTEXT((#774))
GLOBAL_UNIT_ASSIGNED_CONTEXT((#778,#780,#781))
REPRESENTATION_CONTEXT('','3D')
);
#777=(
GEOMETRIC_REPRESENTATION_CONTEXT(3)
GLOBAL_UNCERTAINTY_ASSIGNED_CONTEXT((#775))
GLOBAL_UNIT_ASSIGNED_CONTEXT((#778,#780,#781))
REPRESENTATION_CONTEXT('','3D')
);
#778=(
LENGTH_UNIT()
NAMED_UNIT(*)
SI_UNIT(.MILLI.,.METRE.)
);
#779=(
LENGTH_UNIT()
NAMED_UNIT(*)
SI_UNIT($,.METRE.)
);
#780=(
NAMED_UNIT(*)
PLANE_ANGLE_UNIT()
SI_UNIT($,.RADIAN.)
);
#781=(
NAMED_UNIT(*)
SI_UNIT($,.STERADIAN.)
SOLID_ANGLE_UNIT()
);
#782=SHAPE_DEFINITION_REPRESENTATION(#783,#784);
#783=PRODUCT_DEFINITION_SHAPE('',$,#786);
#784=SHAPE_REPRESENTATION('',(#72),#776);
#785=PRODUCT_DEFINITION_CONTEXT('part definition',#790,'design');
#786=PRODUCT_DEFINITION('2026-05-22-16-26-46-036',
'blade_simple_simulation',#787,#785);
#787=PRODUCT_DEFINITION_FORMATION('',$,#792);
#788=PRODUCT_RELATED_PRODUCT_CATEGORY('blade_simple_simulation',
'blade_simple_simulation',(#792));
#789=APPLICATION_PROTOCOL_DEFINITION('international standard',
'automotive_design',2009,#790);
#790=APPLICATION_CONTEXT(
'Core Data for Automotive Mechanical Design Process');
#791=PRODUCT_CONTEXT('part definition',#790,'mechanical');
#792=PRODUCT('2026-05-22-16-26-46-036','blade_simple_simulation',$,(#791));
#793=PRESENTATION_STYLE_ASSIGNMENT((#794));
#794=SURFACE_STYLE_USAGE(.BOTH.,#795);
#795=SURFACE_SIDE_STYLE('',(#796));
#796=SURFACE_STYLE_FILL_AREA(#797);
#797=FILL_AREA_STYLE('Steel - Satin',(#798));
#798=FILL_AREA_STYLE_COLOUR('Steel - Satin',#799);
#799=COLOUR_RGB('Steel - Satin',0.627450980392157,0.627450980392157,0.627450980392157);
ENDSEC;
END-ISO-10303-21;
